<?xml version="1.0" encoding="UTF-8"?><svg id="a" xmlns="http://www.w3.org/2000/svg" viewBox="0 0 990 273.2"><path d="M194.16,181.11c-13.81-28.78-32.62-46.81-77.89-47.58v-.76c41.82-.38,92.86-7.29,92.86-66C209.12,2.69,150.8,0,107.06,0H0v4.61c32.62,0,32.62,14.58,32.62,64.46v130.46c0,49.5,0,64.46-32.62,64.46v4.61h112.04v-4.61c-29.55,0-29.55-14.58-29.55-64.46v-64.47h20.34c29.16,0,32.23,36.46,45.66,79.43,10.74,34.15,21.1,58.71,60.24,58.71,15.73,0,25.32-1.54,41.06-4.61v-4.61c-1.92.38-4.99.77-6.91.77-25.32,0-34.53-54.1-48.73-83.65ZM82.5,129.69V5.37h24.56c39.52,0,49.11,19.95,49.11,61.4s-12.66,62.93-53.34,62.93h-20.34Z" fill="#fff"/><path d="M528.5.02h-172.52s0,4.61,0,4.61c47.96,0,46.81,33.76,46.81,90.94v72.91c0,65.23-24.17,92.09-62.16,92.09-55.25,0-54.87-58.71-54.87-100.15v-91.32c0-49.5,0-64.46,29.55-64.46V.02h-112.04v4.61c32.61,0,32.61,14.58,32.61,64.46v97.46c0,77.13,32.23,105.14,92.47,105.14,54.49,0,80.2-37.22,80.2-103.22v-72.91c0-43.99-.49-76.34,17.75-87.87,4.85-3.06,11.34-2.83,15.6,1.01,9.26,8.36,9.1,27.73,9.1,60.5v130.46c0,49.5,0,64.46-32.62,64.46v4.61h110.13c83.27,0,120.87-57.17,120.87-134.3C649.37,44.64,611.77.02,528.5.02ZM529.65,263.36h-1.15c-23.79,0-27.63-6.14-27.63-52.19V5.51h28.01c46.43,0,66.38,33,66.38,128.93s-20.72,128.93-65.62,128.93Z" fill="#fff"/><path d="M894.07.06v4.61c47.96,0,46.81,33.76,46.81,91.32v87.1L811.58.06h-169.28v4.61c32.61,0,32.61,14.58,32.61,64.46v130.46c0,49.5,0,64.46-32.61,64.46v4.61h185.01v-4.61c-48.35,0-47.2-33.76-47.2-91.32V38.82l166.15,234.06V95.99c0-57.17-1.15-91.32,43.74-91.32V.06h-95.93ZM774.74,172.73c0,46.58.28,79.11-23.72,89.13-4.71,1.97-9.8,1.67-14.18-.95-13.08-7.81-12.04-23.86-12.04-61.32V69.13c0-25.37-1.43-43.14,2.98-52.98,4.32-9.64,16.12-13.11,25.72-8.72,18.68,8.54,21.24,30.68,21.24,55.95v109.35Z" fill="#fff"/></svg>